<svg xmlns="http://www.w3.org/2000/svg" shape-rendering="geometricPrecision" text-rendering="geometricPrecision" image-rendering="optimizeQuality" fill-rule="evenodd" clip-rule="evenodd" viewBox="0 0 372 511.59"><path fill="#427D2A" d="M62.2 201.06L262.97 0 372 113.75 171.23 314.8z"/><path fill="#87CC71" d="M244.3 53.04c8 8.58 22.64 8.92 31.34.43l43.13 45.01c-9.16 8.94-9.51 23.89.05 34.07L189.88 261.77c-8.75-9.35-23.39-9.7-32.09-1.21l-43.13-45.01c9.19-8.98 9.55-23.93.74-33.33L244.3 53.04z"/><path fill="#427D2A" d="M161.56 174.07c-9.01-31.33 8.56-64.19 39.24-73.4 30.68-9.21 62.84 8.72 71.84 40.06 9.01 31.33-8.56 64.19-39.24 73.39-30.68 9.21-62.84-8.72-71.84-40.05z"/><path fill="#2D2222" fill-rule="nonzero" d="M4.47 383.02l43.28-40.08c5.74-4.91 14.36-4.51 19.55 1.01l2.73 2.89c1.95-2.84 4.32-5.83 7.08-8.94.34-.37 20.36-84.85 23.46-97.84l9.26 8.51 34.62 31.83 82.87-73.55c5.53-4.9 11.11-7.92 16.41-9.42 6.4-1.82 12.4-1.41 17.49.63 1.81.72 3.51 1.65 5.04 2.73 1.6 1.12 3.03 2.39 4.25 3.78 1.2 1.41 2.29 2.98 3.2 4.71.88 1.64 1.58 3.43 2.07 5.29 1.4 5.32 1.08 11.33-1.45 17.43-2.09 5.1-5.73 10.23-11.16 15.02l-18.24 16.75 4.11 8.81 6.39 7.26.75 1.07c5.81 9.56 3.76 18.3-3.28 24.83-.04.04-.11.09-.16.14-.15.14-.03.15.13.4l4.97 7.84 6.39 7.26.75 1.07c6.69 11.01 2.77 20.02-5.74 27.45-.05.04-.1.09-.15.13-.15.14-.42.28-.09.44l11.28 12.81.72 1.01c11.3 18.24-3.78 31.22-18.51 43.9-2.98 2.45-5.49 4.78-8.3 7.37l-16.34 14.98c-7.88 6.28-15.91 10.16-24.3 12.87-8.16 2.64-16.27 4.08-24.93 5.61l-5.74 1.02-5.11 1-.29.04c2.91 5.48 1.99 12.49-2.73 16.93-13.86 13-29.01 28.03-43.36 40.16-5.74 4.9-14.36 4.5-19.55-1.01L3.77 403c-5.25-5.66-5-14.61.63-19.91l.07-.07z"/><path fill="#E4B087" fill-rule="nonzero" d="M133.51 280.38l-28.69-26.36-20.47 85.62c-.34 1.24-.91 2.33-1.71 3.16-3.02 3.41-5.51 6.61-7.43 9.58l86.2 92.21c1.45-.21 2.94-.47 4.48-.78.12 0 .31-.05.44-.04 3.1-.61 7.16-1.35 11.02-2.05 16.9-2.99 31.65-5.61 45.9-16.97l18.48-16.97c.2-.3.47-.54.74-.77.26-.23 2.05-1.81 4.5-3.84 12.58-10.84 25.86-21.9 17.75-35l-6.48-7.36c-3.58 3.03-5.05 3.69-8.67 6.54-3.29 2.54-6.39 4.91-9.24 7.42a7.321 7.321 0 01-10.35-.66 7.342 7.342 0 01.66-10.36c2.85-2.5 6.34-5.22 9.97-8.06 12.38-9.6 24.63-18.61 18.06-29.42l-6.42-7.29c-.35-.4-.64-.85-.92-1.32-4.19 3.81-6.82 5.42-11.3 8.89-3.29 2.55-6.39 4.92-9.23 7.42a7.302 7.302 0 01-10.35-.66 7.312 7.312 0 01.66-10.35c2.85-2.5 6.34-5.22 9.96-8.06 12.38-9.6 25.37-19.35 18.8-30.16l-6.42-7.3c-.46-.53-.81-1.05-1.08-1.63l-20.19 17.62a7.312 7.312 0 01-10.35-.66 7.321 7.321 0 01.66-10.35l45.78-40.96c9.62-8.46 12.27-17.74 10.36-25-.71-2.67-1.99-5.07-3.68-7-1.7-1.92-3.91-3.5-6.48-4.54-6.89-2.76-16.38-1.24-26.26 7.46l-89.02 79.01a7.309 7.309 0 01-10.34-.66 7.312 7.312 0 01.66-10.35z"/><path fill="#43494C" d="M8.58 387.44l42.83-39.71c3.28-3.04 8.43-2.91 11.5.35l98 104.09c3.07 3.25 2.93 8.46-.35 11.5l-42.83 39.71c-3.28 3.04-8.44 2.91-11.5-.35l-98-104.09c-3.06-3.26-2.94-8.46.35-11.5z"/><path fill="#34393E" d="M100.72 388.24l60.19 63.93c3.06 3.25 2.93 8.46-.35 11.5l-42.83 39.71c-3.28 3.04-8.44 2.91-11.51-.35l-12.51-13.3 7.01-101.49z"/><path fill="#fff" fill-rule="nonzero" d="M224.64 166.1l-5.15 5.15-15.02-15.02-4.74 4.75c3.86 4.59 6.57 8.18 8.13 10.78 1.56 2.59 2.38 4.78 2.44 6.58.07 1.79-.59 3.38-1.99 4.78-1.19 1.19-2.35 1.99-3.48 2.4l-4.12-4.13c.78-.33 1.44-.76 1.99-1.31.64-.64.72-1.65.23-3-.49-1.36-1.65-3.29-3.46-5.79-1.81-2.51-4.48-5.77-8.01-9.79l14.29-14.29 18.89 18.89zm7.03-34.91c1.01 1.01 1.56 2.2 1.64 3.54.08 1.37-.4 2.76-1.44 4.2l.14.13c1.49-1.18 3.02-1.78 4.56-1.8 1.54-.03 2.87.52 3.99 1.63 1.84 1.84 2.51 3.96 2.03 6.36-.48 2.41-2.05 4.95-4.73 7.63l-9.68 9.68-18.89-18.89 9.68-9.68c2.58-2.59 4.94-4.1 7.07-4.56 2.13-.45 4 .14 5.63 1.76zm3.28 12.77c-.75-.74-1.57-.99-2.48-.75-.9.24-1.93.94-3.08 2.08l-4.09 4.09 4.47 4.47 4.18-4.19c1.1-1.1 1.72-2.14 1.88-3.11.16-.98-.14-1.85-.88-2.59zm-8.1-7.14c-1.14-1.15-2.63-.82-4.45 1.01l-4.33 4.32 3.74 3.74 3.73-3.73c1.09-1.1 1.76-2.08 2.01-2.96.24-.88.01-1.67-.7-2.38z"/></svg>